<svg width="24" height="24" viewBox="0 0 24 24" fill="none" xmlns="http://www.w3.org/2000/svg">
<path d="M16.9998 6C18.6567 6 19.9998 7.34315 19.9998 9V10H21.0002C21.1823 10 21.3531 10.0487 21.5002 10.1338C21.7991 10.3067 22.0002 10.6299 22.0002 11V13C22.0002 13.3701 21.7991 13.6933 21.5002 13.8662C21.3531 13.9513 21.1823 14 21.0002 14H19.9998V15C19.9998 16.6569 18.6567 18 16.9998 18H4.99951C3.34266 18 1.99951 16.6569 1.99951 15V9C1.99951 7.34315 3.34266 6 4.99951 6H16.9998ZM16.998 7.5H4.99951C4.21981 7.5 3.57906 8.09489 3.50638 8.85554L3.49951 9V15C3.49951 15.7797 4.0944 16.4204 4.85505 16.4931L4.99951 16.5H16.998C17.7777 16.5 18.4184 15.9051 18.4911 15.1445L18.498 15V9C18.498 8.2203 17.9031 7.57955 17.1424 7.50687L16.998 7.5ZM5.99984 9H15.9998C16.5127 9 16.9353 9.38604 16.9931 9.88338L16.9998 10V14C16.9998 14.5128 16.6138 14.9355 16.1165 14.9933L15.9998 15H5.99984C5.487 15 5.06433 14.614 5.00656 14.1166L4.99984 14V10C4.99984 9.48717 5.38588 9.06449 5.88322 9.00673L5.99984 9H15.9998H5.99984Z" fill="white"/>
</svg>
