<svg width="56" height="56" viewBox="0 0 56 56" fill="none" xmlns="http://www.w3.org/2000/svg">
<path d="M24.6667 36.8947C24.2711 36.8947 23.8844 37.0151 23.5555 37.2407C23.2266 37.4662 22.9703 37.7868 22.8189 38.1619C22.6675 38.5369 22.6279 38.9496 22.7051 39.3478C22.7823 39.746 22.9727 40.1117 23.2525 40.3988C23.5322 40.6859 23.8885 40.8814 24.2765 40.9606C24.6644 41.0398 25.0666 40.9991 25.432 40.8438C25.7975 40.6884 26.1098 40.4253 26.3296 40.0877C26.5494 39.7502 26.6667 39.3533 26.6667 38.9474C26.6667 38.403 26.456 37.8809 26.0809 37.4959C25.7058 37.111 25.1971 36.8947 24.6667 36.8947ZM38.6667 32.7895H22.6667C22.313 32.7895 21.9739 32.6453 21.7239 32.3887C21.4738 32.132 21.3333 31.784 21.3333 31.4211C21.3333 31.0581 21.4738 30.7101 21.7239 30.4534C21.9739 30.1968 22.313 30.0526 22.6667 30.0526H33.9883C34.8568 30.0498 35.7011 29.7581 36.3946 29.2213C37.088 28.6845 37.5933 27.9316 37.8347 27.0752L39.9486 19.4814C40.0053 19.2778 40.0152 19.0634 39.9774 18.8551C39.9397 18.6469 39.8554 18.4505 39.7311 18.2814C39.6068 18.1123 39.446 17.9751 39.2613 17.8806C39.0766 17.7861 38.8731 17.7369 38.6667 17.7368H22.3188C22.0427 16.9395 21.5339 16.249 20.8616 15.7592C20.1893 15.2695 19.3863 15.0044 18.5619 15H17.3333C16.9797 15 16.6406 15.1442 16.3905 15.4008C16.1405 15.6574 16 16.0055 16 16.3684C16 16.7313 16.1405 17.0794 16.3905 17.336C16.6406 17.5927 16.9797 17.7368 17.3333 17.7368H18.5619C18.8513 17.7379 19.1326 17.8351 19.3637 18.014C19.5948 18.1929 19.7632 18.4437 19.8437 18.7291L20.0511 19.4745L20.0514 19.4814L22.2389 27.3392C21.221 27.4516 20.2838 27.9602 19.6204 28.7605C18.9569 29.5607 18.6176 30.5916 18.6724 31.6408C18.7273 32.69 19.172 33.6777 19.915 34.4006C20.6581 35.1234 21.6429 35.5263 22.6667 35.5263H38.6667C39.0203 35.5263 39.3594 35.3821 39.6095 35.1255C39.8595 34.8689 40 34.5208 40 34.1579C40 33.795 39.8595 33.4469 39.6095 33.1903C39.3594 32.9336 39.0203 32.7895 38.6667 32.7895ZM36.8991 20.4737L35.2708 26.3229C35.1904 26.6084 35.0219 26.8596 34.7907 27.0386C34.5595 27.2176 34.2779 27.3149 33.9883 27.3158H25.0059L24.6659 26.0949L23.1019 20.4737H36.8991ZM35.3333 36.8947C34.9378 36.8947 34.5511 37.0151 34.2222 37.2407C33.8933 37.4662 33.6369 37.7868 33.4856 38.1619C33.3342 38.5369 33.2946 38.9496 33.3718 39.3478C33.4489 39.746 33.6394 40.1117 33.9191 40.3988C34.1988 40.6859 34.5552 40.8814 34.9432 40.9606C35.3311 41.0398 35.7332 40.9991 36.0987 40.8438C36.4642 40.6884 36.7765 40.4253 36.9963 40.0877C37.216 39.7502 37.3333 39.3533 37.3333 38.9474C37.3333 38.403 37.1226 37.8809 36.7475 37.4959C36.3725 37.111 35.8638 36.8947 35.3333 36.8947Z" fill="black"/>
</svg>
