<svg width="391" height="245" viewBox="0 0 391 245" fill="none" xmlns="http://www.w3.org/2000/svg">
<path d="M367.398 0H23.6016C10.5668 0 0 10.5668 0 23.6016V221.068C0 234.103 10.5668 244.67 23.6016 244.67H367.398C380.433 244.67 391 234.103 391 221.068V23.6016C391 10.5668 380.433 0 367.398 0Z" fill="#4D90FF"/>
<path d="M367.398 4.06243e-08H331.996C335.095 -0.00018181 338.165 0.610167 341.028 1.79619C343.892 2.98222 346.494 4.7207 348.685 6.91234C350.877 9.10399 352.615 11.7059 353.801 14.5695C354.987 17.433 355.598 20.5022 355.598 23.6016V221.068C355.598 224.168 354.987 227.237 353.801 230.101C352.615 232.964 350.877 235.566 348.685 237.758C346.494 239.949 343.892 241.688 341.028 242.874C338.165 244.06 335.095 244.67 331.996 244.67H367.398C370.498 244.67 373.567 244.06 376.431 242.874C379.294 241.688 381.896 239.949 384.088 237.758C386.279 235.566 388.018 232.964 389.204 230.101C390.39 227.237 391 224.168 391 221.068V23.6016C391 20.5022 390.39 17.433 389.204 14.5695C388.018 11.7059 386.279 9.10399 384.088 6.91234C381.896 4.7207 379.294 2.98222 376.431 1.79619C373.567 0.610167 370.498 -0.00018181 367.398 4.06243e-08Z" fill="#0061FF"/>
<path d="M391 89.2928H0V101.094H391V89.2928Z" fill="#E4222E"/>
<path d="M132.179 0.39336V244.67H120.378V0.39336C120.378 0.261882 120.386 0.130528 120.402 0H132.155C132.171 0.130534 132.179 0.261889 132.179 0.39336Z" fill="#E4222E"/>
<path d="M77.8622 71.1463L116.416 90.8885C119.381 92.4067 121.869 94.7137 123.607 97.5555C125.344 100.397 126.264 103.663 126.264 106.994C126.264 110.325 125.344 113.591 123.607 116.433C121.869 119.275 119.381 121.582 116.416 123.1L77.8622 142.842C75.1037 144.255 72.0287 144.935 68.9319 144.818C65.835 144.701 62.8201 143.791 60.1761 142.174C57.5321 140.558 55.3476 138.289 53.832 135.586C52.3164 132.883 51.5204 129.836 51.5204 126.737V87.2521C51.5204 84.153 52.3164 81.1059 53.832 78.4027C55.3476 75.6996 57.5321 73.431 60.1761 71.8144C62.8201 70.1978 65.835 69.2874 68.9319 69.1704C72.0287 69.0534 75.1037 69.7338 77.8622 71.1463Z" fill="#0061FF"/>
<path d="M174.67 71.1463L136.116 90.8885C133.151 92.4067 130.663 94.7137 128.926 97.5555C127.188 100.397 126.269 103.663 126.269 106.994C126.269 110.325 127.188 113.591 128.926 116.433C130.663 119.275 133.151 121.582 136.116 123.1L174.67 142.842C177.429 144.255 180.504 144.935 183.6 144.818C186.697 144.701 189.712 143.791 192.356 142.174C195 140.558 197.185 138.289 198.7 135.586C200.216 132.883 201.012 129.836 201.012 126.737V87.2521C201.012 84.153 200.216 81.1059 198.7 78.4027C197.185 75.6996 195 73.431 192.356 71.8144C189.712 70.1978 186.697 69.2874 183.6 69.1704C180.504 69.0534 177.429 69.7338 174.67 71.1463Z" fill="#0061FF"/>
<path d="M77.8622 59.3455L116.416 79.0877C119.381 80.6059 121.869 82.9129 123.607 85.7547C125.344 88.5964 126.264 91.8627 126.264 95.1935C126.264 98.5244 125.344 101.791 123.607 104.632C121.869 107.474 119.381 109.781 116.416 111.299L77.8622 131.042C75.1037 132.454 72.0287 133.134 68.9319 133.017C65.835 132.9 62.8201 131.99 60.1761 130.373C57.5321 128.757 55.3476 126.488 53.832 123.785C52.3164 121.082 51.5204 118.035 51.5204 114.936V75.4513C51.5204 72.3522 52.3164 69.3051 53.832 66.6019C55.3476 63.8988 57.5321 61.6302 60.1761 60.0136C62.8201 58.397 65.835 57.4866 68.9319 57.3696C72.0287 57.2526 75.1037 57.933 77.8622 59.3455Z" fill="#EB304A"/>
<path d="M174.67 59.3454L136.116 79.0877C133.151 80.6059 130.663 82.9129 128.926 85.7547C127.188 88.5964 126.269 91.8626 126.269 95.1935C126.269 98.5244 127.188 101.791 128.926 104.632C130.663 107.474 133.151 109.781 136.116 111.299L174.67 131.042C177.429 132.454 180.504 133.134 183.6 133.017C186.697 132.9 189.712 131.99 192.356 130.373C195 128.757 197.185 126.488 198.7 123.785C200.216 121.082 201.012 118.035 201.012 114.936V75.4512C201.012 72.3522 200.216 69.3051 198.7 66.6019C197.185 63.8988 195 61.6302 192.356 60.0136C189.712 58.397 186.697 57.4866 183.6 57.3696C180.504 57.2526 177.429 57.933 174.67 59.3454Z" fill="#EB304A"/>
<path d="M174.668 59.3454L169.9 61.7867C172.923 63.274 175.467 65.5808 177.241 68.4441C179.016 71.3074 179.95 74.6118 179.937 77.9805V117.465C179.952 119.965 179.441 122.44 178.439 124.73C177.436 127.02 175.964 129.074 174.118 130.76L174.668 131.042C177.427 132.454 180.502 133.134 183.598 133.017C186.695 132.9 189.71 131.99 192.354 130.373C194.998 128.757 197.183 126.488 198.698 123.785C200.214 121.082 201.01 118.035 201.01 114.936V75.4512C201.01 72.3521 200.214 69.305 198.698 66.6019C197.183 63.8988 194.998 61.6302 192.354 60.0136C189.71 58.397 186.695 57.4866 183.598 57.3696C180.502 57.2526 177.427 57.9329 174.668 59.3454Z" fill="#E4222E"/>
<path d="M126.269 117.221C139.521 117.221 150.264 106.478 150.264 93.2264C150.264 79.9743 139.521 69.2314 126.269 69.2314C113.017 69.2314 102.274 79.9743 102.274 93.2264C102.274 106.478 113.017 117.221 126.269 117.221Z" fill="white"/>
<path d="M126.265 69.2314C123.164 69.2292 120.093 69.8299 117.221 71.0001C121.641 72.7986 125.424 75.8737 128.087 79.8328C130.75 83.7918 132.173 88.4549 132.173 93.2264C132.173 97.9978 130.75 102.661 128.087 106.62C125.424 110.579 121.641 113.654 117.221 115.453C120.502 116.787 124.037 117.379 127.574 117.186C131.11 116.993 134.56 116.019 137.675 114.335C140.791 112.651 143.495 110.298 145.594 107.445C147.692 104.592 149.133 101.31 149.813 97.8341C150.493 94.3583 150.396 90.7751 149.527 87.3416C148.658 83.9081 147.04 80.7095 144.789 77.9753C142.538 75.241 139.71 73.039 136.507 71.5272C133.304 70.0155 129.806 69.2314 126.265 69.2314Z" fill="#E1E1E3"/>
<path d="M343.797 169.145H237.59C236.025 169.145 234.524 168.523 233.417 167.417C232.311 166.31 231.689 164.809 231.689 163.244C231.689 161.68 232.311 160.179 233.417 159.072C234.524 157.966 236.025 157.344 237.59 157.344H343.797C345.362 157.344 346.862 157.966 347.969 159.072C349.076 160.179 349.697 161.68 349.697 163.244C349.697 164.809 349.076 166.31 347.969 167.417C346.862 168.523 345.362 169.145 343.797 169.145ZM296.594 192.746H237.59C236.025 192.746 234.524 192.125 233.417 191.018C232.311 189.912 231.689 188.411 231.689 186.846C231.689 185.281 232.311 183.78 233.417 182.674C234.524 181.567 236.025 180.946 237.59 180.946H296.594C298.158 180.946 299.659 181.567 300.766 182.674C301.872 183.78 302.494 185.281 302.494 186.846C302.494 188.411 301.872 189.912 300.766 191.018C299.659 192.125 298.158 192.746 296.594 192.746Z" fill="white"/>
</svg>
