<svg width="40" height="40" viewBox="0 0 40 40" fill="none" xmlns="http://www.w3.org/2000/svg">
<path d="M20.0002 3.33331C10.8335 3.33331 3.3335 10.8333 3.3335 20C3.3335 29.1666 10.8335 36.6666 20.0002 36.6666C29.1668 36.6666 36.6668 29.1666 36.6668 20C36.6668 10.8333 29.1668 3.33331 20.0002 3.33331ZM26.1668 21.1666L21.1668 26.1666C20.5002 26.8333 19.5002 26.8333 18.8335 26.1666C18.1668 25.5 18.1668 24.5 18.8335 23.8333L21.0002 21.6666H15.0002C14.0002 21.6666 13.3335 21 13.3335 20C13.3335 19 14.0002 18.3333 15.0002 18.3333H21.0002L18.8335 16.1666C18.1668 15.5 18.1668 14.5 18.8335 13.8333C19.5002 13.1666 20.5002 13.1666 21.1668 13.8333L26.1668 18.8333C26.8335 19.5 26.8335 20.5 26.1668 21.1666Z" fill="#0061FF"/>
</svg>
