<svg width="24" height="24" viewBox="0 0 24 24" fill="none" xmlns="http://www.w3.org/2000/svg">
<path d="M17.9987 13.9999C17.4079 14.0038 16.8252 14.1385 16.2927 14.3944C15.7601 14.6503 15.2909 15.021 14.9187 15.4799L9.81869 13.1299C10.0585 12.3956 10.0585 11.6041 9.81869 10.8699L14.9187 8.51987C15.5203 9.24584 16.359 9.73595 17.2868 9.90371C18.2146 10.0715 19.1719 9.9061 19.9896 9.43677C20.8074 8.96745 21.4331 8.22435 21.7562 7.33861C22.0794 6.45288 22.0793 5.48145 21.756 4.59578C21.4326 3.7101 20.8068 2.96711 19.989 2.49794C19.1712 2.02876 18.2139 1.86356 17.2861 2.03149C16.3583 2.19942 15.5197 2.68969 14.9182 3.41576C14.3167 4.14184 13.9911 5.05705 13.9987 5.99987C14.0017 6.2381 14.0251 6.47564 14.0687 6.70987L8.78869 9.13987C8.22576 8.58945 7.51293 8.21739 6.73949 8.0703C5.96605 7.92321 5.1664 8.00764 4.44074 8.313C3.71507 8.61837 3.09565 9.13109 2.66009 9.78693C2.22452 10.4428 1.99219 11.2126 1.99219 11.9999C1.99219 12.7872 2.22452 13.557 2.66009 14.2128C3.09565 14.8687 3.71507 15.3814 4.44074 15.6867C5.1664 15.9921 5.96605 16.0765 6.73949 15.9294C7.51293 15.7824 8.22576 15.4103 8.78869 14.8599L14.0687 17.2899C14.0251 17.5241 14.0017 17.7616 13.9987 17.9999C13.9987 18.791 14.2333 19.5644 14.6728 20.2222C15.1123 20.8799 15.737 21.3926 16.468 21.6954C17.1989 21.9981 18.0031 22.0774 18.779 21.923C19.555 21.7687 20.2677 21.3877 20.8271 20.8283C21.3865 20.2689 21.7675 19.5562 21.9218 18.7802C22.0762 18.0043 21.997 17.2 21.6942 16.4691C21.3915 15.7382 20.8788 15.1135 20.221 14.674C19.5632 14.2345 18.7898 13.9999 17.9987 13.9999ZM17.9987 3.99987C18.3942 3.99987 18.7809 4.11717 19.1098 4.33693C19.4387 4.55669 19.6951 4.86905 19.8464 5.2345C19.9978 5.59996 20.0374 6.00209 19.9603 6.39005C19.8831 6.77801 19.6926 7.13438 19.4129 7.41408C19.1332 7.69379 18.7768 7.88427 18.3889 7.96144C18.0009 8.03861 17.5988 7.999 17.2333 7.84763C16.8679 7.69625 16.5555 7.43991 16.3357 7.11101C16.116 6.78211 15.9987 6.39543 15.9987 5.99987C15.9987 5.46944 16.2094 4.96073 16.5845 4.58566C16.9595 4.21058 17.4683 3.99987 17.9987 3.99987ZM5.99869 13.9999C5.60312 13.9999 5.21644 13.8826 4.88755 13.6628C4.55865 13.443 4.3023 13.1307 4.15093 12.7652C3.99955 12.3998 3.95994 11.9977 4.03711 11.6097C4.11428 11.2217 4.30477 10.8654 4.58447 10.5857C4.86418 10.306 5.22054 10.1155 5.6085 10.0383C5.99647 9.96113 6.3986 10.0007 6.76405 10.1521C7.1295 10.3035 7.44186 10.5598 7.66162 10.8887C7.88139 11.2176 7.99869 11.6043 7.99869 11.9999C7.99869 12.5303 7.78797 13.039 7.4129 13.4141C7.03783 13.7892 6.52912 13.9999 5.99869 13.9999ZM17.9987 19.9999C17.6031 19.9999 17.2164 19.8826 16.8875 19.6628C16.5586 19.443 16.3023 19.1307 16.1509 18.7652C15.9996 18.3998 15.9599 17.9977 16.0371 17.6097C16.1143 17.2217 16.3048 16.8654 16.5845 16.5857C16.8642 16.306 17.2205 16.1155 17.6085 16.0383C17.9965 15.9611 18.3986 16.0007 18.7641 16.1521C19.1295 16.3035 19.4419 16.5598 19.6616 16.8887C19.8814 17.2176 19.9987 17.6043 19.9987 17.9999C19.9987 18.5303 19.788 19.039 19.4129 19.4141C19.0378 19.7892 18.5291 19.9999 17.9987 19.9999Z" fill="#75839D"/>
</svg>
