<svg width="32" height="32" viewBox="0 0 32 32" fill="none" xmlns="http://www.w3.org/2000/svg">
<path d="M24 17.5733V13.3333C23.9981 11.4441 23.3277 9.61658 22.1075 8.17433C20.8873 6.73207 19.1961 5.76815 17.3334 5.45329V3.99996C17.3334 3.64634 17.1929 3.3072 16.9428 3.05715C16.6928 2.8071 16.3537 2.66663 16 2.66663C15.6464 2.66663 15.3073 2.8071 15.0572 3.05715C14.8072 3.3072 14.6667 3.64634 14.6667 3.99996V5.45329C12.804 5.76815 11.1127 6.73207 9.89255 8.17433C8.67237 9.61658 8.00196 11.4441 8.00004 13.3333V17.5733C7.22197 17.8484 6.54804 18.3574 6.07063 19.0305C5.59321 19.7037 5.33569 20.508 5.33337 21.3333V24C5.33337 24.3536 5.47385 24.6927 5.7239 24.9428C5.97395 25.1928 6.31309 25.3333 6.66671 25.3333H10.8534C11.1604 26.4631 11.8307 27.4605 12.7608 28.1716C13.691 28.8827 14.8292 29.268 16 29.268C17.1708 29.268 18.3091 28.8827 19.2392 28.1716C20.1694 27.4605 20.8397 26.4631 21.1467 25.3333H25.3334C25.687 25.3333 26.0261 25.1928 26.2762 24.9428C26.5262 24.6927 26.6667 24.3536 26.6667 24V21.3333C26.6644 20.508 26.4069 19.7037 25.9295 19.0305C25.452 18.3574 24.7781 17.8484 24 17.5733ZM10.6667 13.3333C10.6667 11.9188 11.2286 10.5623 12.2288 9.56206C13.229 8.56186 14.5856 7.99996 16 7.99996C17.4145 7.99996 18.7711 8.56186 19.7713 9.56206C20.7715 10.5623 21.3334 11.9188 21.3334 13.3333V17.3333H10.6667V13.3333ZM16 26.6666C15.5347 26.6638 15.0781 26.5393 14.6758 26.3054C14.2735 26.0715 13.9394 25.7363 13.7067 25.3333H18.2934C18.0607 25.7363 17.7266 26.0715 17.3243 26.3054C16.9219 26.5393 16.4654 26.6638 16 26.6666ZM24 22.6666H8.00004V21.3333C8.00004 20.9797 8.14052 20.6405 8.39057 20.3905C8.64061 20.1404 8.97975 20 9.33337 20H22.6667C23.0203 20 23.3595 20.1404 23.6095 20.3905C23.8596 20.6405 24 20.9797 24 21.3333V22.6666Z" fill="#424C5D"/>
</svg>
